<?xml version="1.0" encoding="utf-8"?>
<!-- Generator: Adobe Illustrator 26.0.1, SVG Export Plug-In . SVG Version: 6.00 Build 0)  -->
<svg version="1.1" id="Layer_1" xmlns="http://www.w3.org/2000/svg" xmlns:xlink="http://www.w3.org/1999/xlink" x="0px" y="0px"
	 viewBox="0 0 479.3 286.5" style="enable-background:new 0 0 479.3 286.5;" xml:space="preserve">
<style type="text/css">
	.st0{fill:#FFFFFF;}
	.st1{fill:none;}
</style>
<g>
	<polygon class="st0" points="313.8,62.6 220.4,62.6 220.4,0 238.1,0 238.1,47.1 313.8,47.1 	"/>
	<rect x="220.4" y="108.8" class="st0" width="35.4" height="52"/>
	<rect x="125.5" y="108.8" class="st0" width="35.4" height="52"/>
	<polygon class="st0" points="160.9,286.5 0,286.5 0,0 104.8,0 143.2,0 160.9,0 160.9,58.6 67.5,58.6 67.5,205.4 160.9,205.4 	"/>
	<path class="st0" d="M313.8,0h138.9l26.5,75.2L457,84l-7.5-20.2l-79.2-0.9l0,91.1H462v132.6h-56.4v-79.4l-91.7-0.3L313.8,0z"/>
	<path class="st1" d="M160.9,62.8V0h59.5v62.8h93.4v144h-93.4v79.6h-59.5v-79.6H67.5v-144H160.9z M125.5,160.8h35.4v-52h-35.4
		L125.5,160.8z M220.4,108.8v52h35.4v-52H220.4z"/>
	<rect x="222" y="207" class="st0" width="91.7" height="74.2"/>
</g>
</svg>
