<?xml version="1.0" encoding="utf-8"?>
<svg viewBox="0 0 500 500" style="" xmlns="http://www.w3.org/2000/svg">
  <polygon class="cls-1" points="303.698 143.436 202.66 143.436 202.66 81.424 221.808 81.424 221.808 128.024 303.698 128.024 303.698 143.436" style="fill: rgb(255, 255, 255);"/>
  <rect class="cls-1" x="202.66" y="193.418" width="38.296" height="56.275" style="fill: rgb(255, 255, 255);"/>
  <rect class="cls-1" x="99.991" y="193.418" width="38.296" height="56.275" style="fill: rgb(255, 255, 255);"/>
  <polygon class="cls-1" points="139.769 379.87 23.504 379.87 22.38 81.424 77.617 81.424 119.138 81.424 138.287 81.424 138.287 143.65 37.247 143.65 37.247 299.472 138.287 299.472 139.769 379.87" style="fill: rgb(255, 255, 255);"/>
  <path class="cls-1" d="M 303.699 75.688 L 454.004 75.688 L 482.703 157.092 L 458.552 166.534 L 450.397 144.669 L 364.709 143.652 L 364.715 242.167 L 463.958 242.167 L 463.958 385.608 L 402.942 385.608 L 402.942 299.756 L 303.699 299.473 L 303.699 75.688 Z" style="fill: rgb(255, 255, 255);"/>
  <path class="cls-2" d="M 138.287 143.652 L 138.287 75.688 L 202.66 75.688 L 202.66 143.652 L 303.699 143.652 L 303.699 299.473 L 202.66 299.473 L 202.66 385.608 L 138.287 385.608 L 138.287 299.473 L 37.247 299.473 L 37.247 143.652 L 138.287 143.652 Z M 99.991 249.693 L 138.287 249.693 L 138.287 193.418 L 99.991 193.418 L 99.991 249.693 Z M 202.66 193.418 L 202.66 249.693 L 240.957 249.693 L 240.957 193.418 L 202.66 193.418 Z" style="fill: none;"/>
  <rect class="cls-1" x="204.402" y="299.654" width="99.243" height="80.217" style="fill: rgb(255, 255, 255);"/>
</svg>